# xmcd
#
# Track frame offsets:
#	300
#	9026
#	21102
#	29784
#	43569
#	61449
#	75174
#	92750
#	105846
#	118818
#	134726
#	146386
#	158918
#	168143
#	182214
#	195259
#	201559
#	217373
#	227842
#	243387
#
# Disc length: 3384 seconds
#
# Revision: 1
# Processed by: cddbd v1.5.1PL2 Copyright (c) Steve Scherf et al.
# Submitted via: EasyCDDAExtractor 9.1.3.1
#
DISCID=120d3414
DTITLE=Eddie Pennington - Walks The Strings... And Even Sings
DYEAR=2004
DGENRE=Country
TTITLE0=Walking The Strings
TTITLE1=Mose's Blues
TTITLE2=Wabash Cannonball
TTITLE3=Information, Please
TTITLE4=John's Smoke Turns Blue
TTITLE5=Home
TTITLE6=Nine Pound Hammer
TTITLE7=Pig Ankle Rag
TTITLE8=Raindrops
TTITLE9=Fertile Liza
TTITLE10=Stealing Time
TTITLE11=Sweet Georgia Brown
TTITLE12=The Pig Got Up
TTITLE13=Stone's Rag
TTITLE14=Bye, Bye Blues
TTITLE15=So Round, So Firm
TTITLE16=The Panic Is On
TTITLE17=Bluebell
TTITLE18=Duncan And Brady
TTITLE19=Over The Rainbow
EXTD=
EXTT0=
EXTT1=
EXTT2=
EXTT3=
EXTT4=
EXTT5=
EXTT6=
EXTT7=
EXTT8=
EXTT9=
EXTT10=
EXTT11=
EXTT12=
EXTT13=
EXTT14=
EXTT15=
EXTT16=
EXTT17=
EXTT18=
EXTT19=
PLAYORDER=
